# xmcd CD database file
#
# Track frame offsets:
#	150
#	11306
#	21264
#	35281
#	55670
#	70615
#	86408
#	102405
#	114093
#	126710
#	140045
#	153840
#	167168
#	180385
#	194183
#	204463
#	215720
#	227860
#	241532
#	254185
#	267952
#	281292
#	296305
#	311375
#	323755
#	336445
#
# Disc length: 4654 seconds
#
# Revision: 1
# Processed by: cddbd v1.5.2PL0 Copyright (c) Steve Scherf et al.
# Submitted via: CDex 1.51
#
DISCID=77122c1a
DTITLE=Chet Baker - The Young Man with the horn cd 3
DYEAR=1953
DGENRE=Jazz
TTITLE0=01 - Varsity Drag
TTITLE1=02 - Speak low
TTITLE2=03 - half nelson
TTITLE3=04 - Lady Bird
TTITLE4=05 - Love me or Leave me 
TTITLE5=06 - Swing house
TTITLE6=07 - Isn't it romantic
TTITLE7=08 - The lamp is low
TTITLE8=09 - This time the dream's on me
TTITLE9=10 - Maid in mexico
TTITLE10=11 - Imagination
TTITLE11=12 - Russ Job
TTITLE12=13 - Batter up
TTITLE13=14 - Easy to love
TTITLE14=15 - Long ago and far away (10lp track)
TTITLE15=16 - Long ago and far away (12lp track)
TTITLE16=17 - Carson city stage
TTITLE17=18 - No ties
TTITLE18=19 - Band Aid
TTITLE19=20 - Bea's flat
TTITLE20=21 - All the things You are
TTITLE21=22 - Moon love (10lp track)
TTITLE22=23 - Moon love (12lp track)
TTITLE23=24 - Happy little sunbeam
TTITLE24=25 - The drill is gone (10lp track)
TTITLE25=26 - The drill is gone (12lp track)
EXTD=YEAR: 1953
EXTT0=
EXTT1=
EXTT2=
EXTT3=
EXTT4=
EXTT5=
EXTT6=
EXTT7=
EXTT8=
EXTT9=
EXTT10=
EXTT11=
EXTT12=
EXTT13=
EXTT14=
EXTT15=
EXTT16=
EXTT17=
EXTT18=
EXTT19=
EXTT20=
EXTT21=
EXTT22=
EXTT23=
EXTT24=
EXTT25=
PLAYORDER=
